/* XPM */
static char * exit1_xpm[] = {
"32 32 8 1",
" 	c #8FDE5D",
".	c #14182E",
"+	c #FFEE83",
"@	c #AD2F45",
"#	c #F5FFE8",
"$	c #E64539",
"%	c #F0B541",
"&	c #537A3A",
"                                ",
"                                ",
"                                ",
"                                ",
"                                ",
"                                ",
"                                ",
"                                ",
"                                ",
"          ..        ..          ",
"         .+..........+.         ",
"         .+.@@@@@@@@.+.         ",
"         .+.@@@@@@@@.+.         ",
"         .#.$$$$$$$$.#.         ",
"         .+.@@@@@@@@.+.         ",
"         .+.@@....@@.+.         ",
"         .+...####...+.         ",
"         .+++%+..+%+++.         ",
"         .....+..+.....         ",
"         .%....++....%.         ",
"         .+++++..+++++.         ",
"         .%..........%.         ",
"         &&&&&&&&&&&&&&         ",
"         &&&&&&&&&&&&&&         ",
"         &&&&&&&&&&&&&&         ",
"           &&&&&&&&&&           ",
"                                ",
"                                ",
"                                ",
"                                ",
"                                ",
"                                "};
