/* XPM */
static char * exit4_xpm[] = {
"32 32 7 1",
" 	c #8FDE5D",
".	c #14182E",
"+	c #FFEE83",
"@	c #F5FFE8",
"#	c #F0B541",
"$	c #AD2F45",
"%	c #537A3A",
"                                ",
"                                ",
"                                ",
"                                ",
"                                ",
"                                ",
"                                ",
"          ..        ..          ",
"         .+..........+.         ",
"         .+...@..@...+.         ",
"         .+++#+..+#+++.         ",
"         ......++......         ",
"         ..............         ",
"         .#..........#.         ",
"         .#..........#.         ",
"         .#..........#.         ",
"         .#..........#.         ",
"         .+.$$$$$$$$.+.         ",
"         .+.$$$$$$$$.+.         ",
"         .+..........+.         ",
"         .++++++++++++.         ",
"         .#..........#.         ",
"         %%%%%%%%%%%%%%         ",
"         %%%%%%%%%%%%%%         ",
"         %%%%%%%%%%%%%%         ",
"           %%%%%%%%%%           ",
"                                ",
"                                ",
"                                ",
"                                ",
"                                ",
"                                "};
