/* XPM */
static char * coin0_xpm[] = {
"32 32 8 1",
" 	c #8FDE5D",
".	c #33323D",
"+	c #DAAB76",
"@	c #F7EC9B",
"#	c #FFFFFF",
"$	c #D88571",
"%	c #C25F62",
"&	c #537A3A",
"                                ",
"                                ",
"                                ",
"                                ",
"                                ",
"                                ",
"                                ",
"              ...++             ",
"             .@@@##+            ",
"            .@$$$$$#+           ",
"           .@+%%%%%$#+          ",
"           .@%++%++%@.          ",
"           .@%++%++%@.          ",
"           .@%%%%%%%@.          ",
"           .@+%+%+%$@.          ",
"            .@+++++@.           ",
"             .@@@@@.            ",
"              .....             ",
"                                ",
"                                ",
"                                ",
"              &&&&&             ",
"           &&&&&&&&&&&          ",
"           &&&&&&&&&&&          ",
"              &&&&&             ",
"                                ",
"                                ",
"                                ",
"                                ",
"                                ",
"                                ",
"                                "};
