/* XPM */
static char * coin2_xpm[] = {
"32 32 6 1",
" 	c #8FDE5D",
".	c #DAAB76",
"+	c #FFFFFF",
"@	c #33323D",
"#	c #F7EC9B",
"$	c #537A3A",
"                                ",
"                                ",
"                                ",
"                                ",
"                                ",
"                                ",
"                                ",
"                .               ",
"               .+.              ",
"               @#@              ",
"               @#@              ",
"               @#@              ",
"               @#@              ",
"               @#@              ",
"               @#@              ",
"               @#@              ",
"               @.@              ",
"                @               ",
"                                ",
"                                ",
"                                ",
"                $               ",
"               $$$              ",
"               $$$              ",
"                $               ",
"                                ",
"                                ",
"                                ",
"                                ",
"                                ",
"                                ",
"                                "};
