/* XPM */
static char *result[] = {
/* columns rows colors chars-per-pixel */
"32 32 5 1 ",
"  c #3D6E70",
". c #EB564B",
"X c #8FDE5D",
"o c #FFE478",
"O c #FFFFEB",
/* pixels */
"XXXXXXXXXXXXXXXXXXXXXXXXXXXXXXXX",
"XXXXXXXXXXXXXXXXXXXXXXXXXXXXXXXX",
"XXXXXXXXXXXXXXXXXXXXXXXXXXXXXXXX",
"XXXXXXXXXXXXXXXXXXXXXXXXXXXXXXXX",
"XXXXXXXXXXXXXXXXXXXXXXXXXXXXXXXX",
"XXXXXXXXXXXXXXXXXXXXXXXXXXXXXXXX",
"XXXXXXXXXXXXXXXXXXXXXXXXXXXXXXXX",
"XXXXXXXXXXXXXXXXXXXXXXXXXXXXXXXX",
"XXXXXXXXXXXXXXXXXXXXXXXXXXXXXXXX",
"XXXXXXXXXXXXXXXXXXXXXX......XXXX",
"XXXXXXXXXXXXXXXXXXXXXX......XXXX",
"XXXXXXXXXXXXXXXXXXXXXX..oo..XXXX",
"XXXXXXXXX....XXXXXXXXX..oo..XXXX",
"XXXXXXXXX....XXXXXXXXX......XXXX",
"XXXXXXXXX....XXXXXXXXX......XXXX",
"XXXXXXXXX....XXXXXXXXX      XXXX",
"XXXXX....ooOO....XXXXXXXXXXXXXXX",
"XXXXX....ooOO....XXXXXXXXXXXXXXX",
"XXXXX....oooo....XXXXXXXXXXXXXXX",
"XXXXX....oooo....XXXXXXXXXXXXXXX",
"XXXXX    ....    XXXXXXXXXXXXXXX",
"XXXXXXXX .... XXXXXXXXXXXXXXXXXX",
"XXXXXXXX .... XXXXXXXXXXXXXXXXXX",
"XXXXXXXX .... XXXXXXXXXXXXXXXXXX",
"XXXXXXXXX    XXXXXXXXXXXXXXXXXXX",
"XXXXXXXXXXXXXXXXXXXXXXXXXXXXXXXX",
"XXXXXXXXXXXXXXXXXXXXXXXXXXXXXXXX",
"XXXXXXXXXXXXXXXXXXXXXXXXXXXXXXXX",
"XXXXXXXXXXXXXXXXXXXXXXXXXXXXXXXX",
"XXXXXXXXXXXXXXXXXXXXXXXXXXXXXXXX",
"XXXXXXXXXXXXXXXXXXXXXXXXXXXXXXXX",
"XXXXXXXXXXXXXXXXXXXXXXXXXXXXXXXX"
};
