/* XPM */
static char *result[] = {
/* columns rows colors chars-per-pixel */
"32 32 5 1 ",
"  c #3D6E70",
". c #FFB570",
"X c #8FDE5D",
"o c #BD4882",
"O c #FF6B97",
/* pixels */
"XXXXXXXXXXXXXXXXXXXXXXXXXXXXXXXX",
"XXXXXXXXXXXXXXXXXXXXXXXXXXXXXXXX",
"XXXXXXXXXXXXXXXXXXXXXXXXXXXXXXXX",
"XXXXXXXXXXXXXXXXXXXXXXXXXXXXXXXX",
"XXXXXXXXXXXXXXXXXXXXXXXXXXXXXXXX",
"XXXXXXXXXXXXXXXXXXXOOOOXXXXXXXXX",
"XXXXXXXXXXXXXXXXXXXOOOOXXXXXXXXX",
"XXXXXXXXXXXXXXXXXXXOOOOXXXXXXXXX",
"XXXXXXXXXXXXXXXXXXXOOOOXXXXXXXXX",
"XXXXXXXXXXXXXXXOOOOoo..OOOOXXXXX",
"XXXXXXXXXXXXXXXOOOOoo..OOOOXXXXX",
"XXXXXXXXXXXXXXXOOOOooooOOOOXXXXX",
"XXXXXXXXXXXXXXXOOOOooooOOOOXXXXX",
"XXXXXXXXXXXXXXX    OOOO    XXXXX",
"XXXXXXXXXXXXXXXXXX OOOO XXXXXXXX",
"XXXXXXXXXXXXXXXXXX OOOO XXXXXXXX",
"XXXXXXXXXOOOOXXXXX OOOO XXXXXXXX",
"XXXXXXXXXOOOOXXXXXXXXXXXXXXXXXXX",
"XXXXXXXXXOOOOXXXXXXXXXXXXXXXXXXX",
"XXXXXXXXXOOOOXXXXXXXXXXXXXXXXXXX",
"XXXXXOOOOoo..OOOOXXXXXXXXXXXXXXX",
"XXXXXOOOOoo..OOOOXXXXXXXXXXXXXXX",
"XXXXXOOOOooooOOOOXXXXXXXXXXXXXXX",
"XXXXXOOOOooooOOOOXXXXXXXXXXXXXXX",
"XXXXX    OOOO    XXXXXXXXXXXXXXX",
"XXXXXXXX OOOO XXXXXXXXXXXXXXXXXX",
"XXXXXXXX OOOO XXXXXXXXXXXXXXXXXX",
"XXXXXXXX OOOO XXXXXXXXXXXXXXXXXX",
"XXXXXXXXXXXXXXXXXXXXXXXXXXXXXXXX",
"XXXXXXXXXXXXXXXXXXXXXXXXXXXXXXXX",
"XXXXXXXXXXXXXXXXXXXXXXXXXXXXXXXX",
"XXXXXXXXXXXXXXXXXXXXXXXXXXXXXXXX"
};
