/* XPM */
static char * slime20_xpm[] = {
"32 32 2 1",
" 	c None",
".	c #CCCCCC",
"                                ",
"                                ",
"                                ",
"                                ",
"                                ",
"                                ",
"                                ",
"                                ",
"                                ",
"                                ",
"                                ",
"                                ",
"                                ",
"                                ",
"                                ",
"                                ",
"                                ",
"                                ",
"                                ",
"                                ",
"                                ",
"          .                     ",
"         ...          .         ",
"         .....       ..         ",
"         ..............         ",
"          ............          ",
"             ......             ",
"                                ",
"                                ",
"                                ",
"                                ",
"                                "};
