/* XPM */
static char * slime4_xpm[] = {
"32 32 2 1",
" 	c None",
".	c #CCCCCC",
"                                ",
"                                ",
"                                ",
"                                ",
"                                ",
"                                ",
"                                ",
"                                ",
"                                ",
"                                ",
"                                ",
"                                ",
"                                ",
"                                ",
"                                ",
"                                ",
"                                ",
"                                ",
"                                ",
"                                ",
"                                ",
"                                ",
"      .                  .      ",
"      ..                ..      ",
"      .....            ...      ",
"       ..................       ",
"          ............          ",
"                                ",
"                                ",
"                                ",
"                                ",
"                                "};
