/* XPM */
static char * slime45_xpm[] = {
"32 32 2 1",
" 	c None",
".	c #CCCCCC",
"                                ",
"                                ",
"                                ",
"                                ",
"                                ",
"                                ",
"                                ",
"                                ",
"                                ",
"                                ",
"                                ",
"                                ",
"                                ",
"                                ",
"                                ",
"                                ",
"                                ",
"                                ",
"                                ",
"                                ",
"                                ",
"                     .          ",
"         .          ...         ",
"         ..       .....         ",
"         ..............         ",
"          ............          ",
"             ......             ",
"                                ",
"                                ",
"                                ",
"                                ",
"                                "};
