/* XPM */
static char * slime33_xpm[] = {
"32 32 2 1",
" 	c None",
".	c #CCCCCC",
"                                ",
"                                ",
"                                ",
"                                ",
"                                ",
"                                ",
"                                ",
"                                ",
"                                ",
"                                ",
"                                ",
"                                ",
"                                ",
"                                ",
"                                ",
"                                ",
"                                ",
"                                ",
"                                ",
"                                ",
"                                ",
"                                ",
"        .              .        ",
"        .             ..        ",
"        ..          ....        ",
"         ..............         ",
"            ........            ",
"                                ",
"                                ",
"                                ",
"                                ",
"                                "};
