/* XPM */
static char * slime7_xpm[] = {
"32 32 2 1",
" 	c None",
".	c #CCCCCC",
"                                ",
"                                ",
"                                ",
"                                ",
"                                ",
"                                ",
"                                ",
"                                ",
"                                ",
"                                ",
"                                ",
"                                ",
"                                ",
"                                ",
"                                ",
"                                ",
"                                ",
"                                ",
"                                ",
"                                ",
"                                ",
"         ..           .         ",
"        ....         ...        ",
"        ................        ",
"        ................        ",
"         ..............         ",
"            ........            ",
"                                ",
"                                ",
"                                ",
"                                ",
"                                "};
