/* XPM */
static char * wall3_xpm[] = {
"32 32 10 1",
" 	c #4DA6FF",
".	c #3B7FC3",
"+	c #EB9C6E",
"@	c #814636",
"#	c #CFFF70",
"$	c #8FDE5D",
"%	c #BA6156",
"&	c #CBDBFC",
"*	c #4B5BAB",
"=	c #5B6EE1",
"                           .+@#$",
"                           .+@@#",
"                           .%+@@",
"                           .%%++",
"                           .&%%%",
"                           .&%%%",
"                           .*&%%",
"                            =*&&",
"                             =**",
"                              ==",
"                                ",
"                                ",
"                                ",
"                                ",
"                                ",
"                                ",
"                                ",
"                                ",
"                                ",
"                                ",
"                                ",
"                                ",
"                                ",
"                                ",
"                                ",
"                                ",
"                                ",
"                                ",
"                                ",
"                                ",
"                                ",
"                                "};
