/* XPM */
static char * dino27_xpm[] = {
"32 32 8 1",
" 	c None",
".	c #382121",
"+	c #BC4D4F",
"@	c #A04345",
"#	c #4B9A27",
"$	c #FFFFFF",
"%	c #FFD7A8",
"&	c #D8B78F",
"                                ",
"                                ",
"                                ",
"                                ",
"                                ",
"                                ",
"                                ",
"                                ",
"        ............            ",
"       .+++++++@@@@..           ",
"       .+@@@++@@@@@.#.          ",
"       ..+++.+@$.$@.#.          ",
"       .++++++@$.$@...          ",
"       .++++++@$.$.#.           ",
"       .++++++@@@@.#.           ",
"       .....+@@@@@...           ",
"            .++++@@..           ",
"            .%%%%&@.            ",
"            .%%%%&@...          ",
"            .%%%%&@++.          ",
"            .+&&+@@@..          ",
"            .+++++@..           ",
"            .+@..+@.            ",
"             .@. .@.            ",
"              ..  ..            ",
"                                ",
"                                ",
"                                ",
"                                ",
"                                ",
"                                ",
"                                "};
