/* XPM */
static char * dino13_xpm[] = {
"32 32 8 1",
" 	c None",
".	c #382121",
"+	c #A04345",
"@	c #BC4D4F",
"#	c #4B9A27",
"$	c #FFFFFF",
"%	c #D8B78F",
"&	c #FFD7A8",
"                                ",
"                                ",
"                                ",
"                                ",
"                                ",
"                                ",
"                                ",
"                                ",
"            ............        ",
"           ..++++@@@@@@@.       ",
"          .#.+++++@@+++@.       ",
"          .#.+$.$+@.@@@..       ",
"          ...+$.$+@@@@@@.       ",
"           .#.$.$+@@@@@@.       ",
"           .#.++++@@@@@@.       ",
"           ...+++++@.....       ",
"           ..++@@@@.            ",
"            .+%&&&&.            ",
"          ...+%&&&&.            ",
"          .@@+%&&&&.            ",
"          ..+++@%%@.            ",
"           ..+@@@@@.            ",
"            .+@..+@.            ",
"            .+. .+.             ",
"            ..  ..              ",
"                                ",
"                                ",
"                                ",
"                                ",
"                                ",
"                                ",
"                                "};
