/* XPM */
static char * slime13_xpm[] = {
"32 32 6 1",
" 	c None",
".	c #1D235D",
"+	c #65B1B8",
"@	c #4D8AB3",
"#	c #FFFFFF",
"$	c #0C0E19",
"                                ",
"                                ",
"                                ",
"                                ",
"              ....              ",
"            ..+++@.             ",
"           .++++++@.            ",
"          .+.++.#++@.           ",
"          .+.++.#++@.           ",
"          .+.++..+++@.          ",
"          .+++++++++@.          ",
"          .++++++++@@.          ",
"          .++++++++@@.          ",
"          .@++++++@@.           ",
"           .@@@@@@@.            ",
"            .......             ",
"                                ",
"                                ",
"                                ",
"                                ",
"                                ",
"           $$$$$$$$$$           ",
"          $$$$$$$$$$$$          ",
"          $$$$$$$$$$$$          ",
"          $$$$$$$$$$$$          ",
"           $$$$$$$$$$           ",
"                                ",
"                                ",
"                                ",
"                                ",
"                                ",
"                                "};
