/* XPM */
static char * slime10_xpm[] = {
"32 32 6 1",
" 	c None",
".	c #1D235D",
"+	c #4D8AB3",
"@	c #65B1B8",
"#	c #FFFFFF",
"$	c #0C0E19",
"                                ",
"                                ",
"                                ",
"                                ",
"                                ",
"                                ",
"                                ",
"                                ",
"                                ",
"                                ",
"                                ",
"                                ",
"                                ",
"                                ",
"                                ",
"                                ",
"            ........            ",
"          ..++@@@@@@..          ",
"         .+++@@#.@@@.@.         ",
"        .+++@@@#.@@@.@@.        ",
"        .+++@@@..@@@.@@@.       ",
"       .++++@@@@@@@@@@@@.       ",
"       .+++++@@@@@@@@@@@.       ",
"        ...++++@@@@@@@@.        ",
"        $$$............$        ",
"         $$$$$$$$$$$$$$         ",
"                                ",
"                                ",
"                                ",
"                                ",
"                                ",
"                                "};
