/* XPM */
static char *result[] = {
/* columns rows colors chars-per-pixel */
"32 32 7 1 ",
"  c #3D6E70",
". c #EB564B",
"X c #8FDE5D",
"o c #FFE478",
"O c #EEC39A",
"+ c #FFFFEB",
"@ c white",
/* pixels */
"XXXXXXXXXXXXXXXXXXXXXXXXXXXXXXXX",
"XXXXXXXXXXXXXXXXXXXXXXXXXXXXXXXX",
"XXXXXXXXXXXXXXXXXXXXXXXXXXXXXXXX",
"XXXXXXXXXXXXXXXXXXXXXXXXXXXXXXXX",
"XXXXXXX@@@XXXXXXXXXXXXXXXXXXXXXX",
"XXXXXXX@@@XXXXXXXXXXXXXXXXXXXXXX",
"XXXXXXX@@@XXXXXXXXXXXXXXXXXXXXXX",
"XXXX@@@OOO@@@XXXXXXXXXXXXXXXXXXX",
"XXXX@@@OOO@@@XXXXXXXXXXXXXXXXXXX",
"XXXX@@@ooO@@@XXXXXXXXX@@@@XXXXXX",
"XXXX   @@@   XXXXXXXXX@@@@XXXXXX",
"XXXXXX @@@ XXXXXXXXX@@oOOO@@XXXX",
"XXXXXX @@@ XXXXXXXXX@@oooO@@XXXX",
"XXXXXXX   XXXXXXXXXX@@oooO@@XXXX",
"XXXXXXXXXXXXXXXXXXXX@@oooo@@XXXX",
"XXXXXXXXXXXXXXXXXXXX  @@@@  XXXX",
"XXXXXXXXXXXXXXXXXXXXX @@@@ XXXXX",
"XXXXXXXXXXXXXXX...XXXX    XXXXXX",
"XXXXXXXXXXXXXXX...XXXXXXXXXXXXXX",
"XXXXXXXXXXXXXXX...XXXXXXXXXXXXXX",
"XXXXXXXXXXXX...oo+...XXXXXXXXXXX",
"XXXXXXXXXXXX...oo+...XXXXXXXXXXX",
"XXXXXXXXXXXX...ooo...XXXXXXXXXXX",
"XXXXXXXXXXXX   ...   XXXXXXXXXXX",
"XXXXXXXXXXXXXX ... XXXXXXXXXXXXX",
"XXXXXXXXXXXXXX ... XXXXXXXXXXXXX",
"XXXXXXXXXXXXXXX   XXXXXXXXXXXXXX",
"XXXXXXXXXXXXXXXXXXXXXXXXXXXXXXXX",
"XXXXXXXXXXXXXXXXXXXXXXXXXXXXXXXX",
"XXXXXXXXXXXXXXXXXXXXXXXXXXXXXXXX",
"XXXXXXXXXXXXXXXXXXXXXXXXXXXXXXXX",
"XXXXXXXXXXXXXXXXXXXXXXXXXXXXXXXX"
};
