/* XPM */
static char *result[] = {
/* columns rows colors chars-per-pixel */
"32 32 6 1 ",
"  c #814636",
". c #EB9C6E",
"X c #8FDE5D",
"o c #CFFF70",
"O c #4DA6FF",
"+ c #CBDBFC",
/* pixels */
"Xo .+OOOOOOOOOOOOOOOOOOOOOOO. oX",
"Xo .+OOOOOOOOOOOOOOOOOOOOOOO. oX",
"Xo .+OOOOOOOOOOOOOOOOOOOOOOO. oX",
"Xo .+OOOOOOOOOOOOOOOOOOOOOOO. oX",
"Xo .+OOOOOOOOOOOOOOOOOOOOOOO. oX",
"Xo .+OOOOOOOOOOOOOOOOOOOOOOO. oX",
"Xo .+OOOOOOOOOOOOOOOOOOOOOOO. oX",
"Xo .+OOOOOOOOOOOOOOOOOOOOOOO. oX",
"Xo .+OOOOOOOOOOOOOOOOOOOOOOO. oX",
"Xo .+OOOOOOOOOOOOOOOOOOOOOOO. oX",
"Xo .+OOOOOOOOOOOOOOOOOOOOOOO. oX",
"Xo .+OOOOOOOOOOOOOOOOOOOOOOO. oX",
"Xo .+OOOOOOOOOOOOOOOOOOOOOOO. oX",
"Xo .+OOOOOOOOOOOOOOOOOOOOOOO. oX",
"Xo .+OOOOOOOOOOOOOOOOOOOOOOO. oX",
"Xo .+OOOOOOOOOOOOOOOOOOOOOOO. oX",
"Xo .+OOOOOOOOOOOOOOOOOOOOOOO. oX",
"Xo .+OOOOOOOOOOOOOOOOOOOOOOO. oX",
"Xo .+OOOOOOOOOOOOOOOOOOOOOOO. oX",
"Xo .+OOOOOOOOOOOOOOOOOOOOOOO. oX",
"Xo .+OOOOOOOOOOOOOOOOOOOOOOO. oX",
"Xo .+OOOOOOOOOOOOOOOOOOOOOOO. oX",
"Xo .+OOOOOOOOOOOOOOOOOOOOOOO. oX",
"Xo .+OOOOOOOOOOOOOOOOOOOOOOO. oX",
"Xo .+OOOOOOOOOOOOOOOOOOOOOOO. oX",
"Xo .+OOOOOOOOOOOOOOOOOOOOOOO. oX",
"Xo .+OOOOOOOOOOOOOOOOOOOOOOO. oX",
"Xo .+OOOOOOOOOOOOOOOOOOOOOOO. oX",
"Xo .+OOOOOOOOOOOOOOOOOOOOOOO. oX",
"Xo .+OOOOOOOOOOOOOOOOOOOOOOO. oX",
"Xo .+OOOOOOOOOOOOOOOOOOOOOOO. oX",
"Xo .+OOOOOOOOOOOOOOOOOOOOOOO. oX"
};
