/* XPM */
static char * wall0_xpm[] = {
"32 32 7 1",
" 	c None",
".	c #322947",
"+	c #CFFF70",
"@	c #3D6E70",
"#	c #8FDE5D",
"$	c #3CA370",
"%	c #323E4F",
"                                ",
"           .........            ",
"        ...+++++++++...         ",
"       .+++++++++++++++.        ",
"      .+++++++++++++++++.       ",
"     .+++++++++++++++++++.      ",
"     .+++++++++++++++++++.      ",
"    ..+++++++++++++++++++..     ",
"    .@+++++++++++++++++++#.     ",
"    .@+++++++++++++++++++#.     ",
"    .@@+++++++++++++++++##.     ",
"    .@@@@+++++++++++++$$##.     ",
"    .@@$$@@@+++++++$$$$$##.     ",
"    .@@$$$$$$$$$$$$$$$$$##.     ",
"    .@@$$$$$$$$$$$$$$$$$##.     ",
"    .@@$$$$$$$$$$$$$$$$###.     ",
"     .@@$$$$$$$$$$$$$$$##%      ",
"     .@@@$$$$$$$$$$$$$$##%      ",
"      .@@@@$$$$$$$$$$$##.       ",
"       .@@@@@@$$$$$$###.        ",
"        ...@@@@@@@##...         ",
"           .........            ",
"                                ",
"                                ",
"                                ",
"                                ",
"                                ",
"                                ",
"                                ",
"                                ",
"                                ",
"                                "};
