/* XPM */
static char * wall4_xpm[] = {
"32 32 9 1",
" 	c #8FDE5D",
".	c #CFFF70",
"+	c #814636",
"@	c #EB9C6E",
"#	c #CBDBFC",
"$	c #4DA6FF",
"%	c #BA6156",
"&	c #4B5BAB",
"*	c #5B6EE1",
" .+@#$$$$$$$$$$$$$$$$$$$$$$$$$$$",
".++@#$$$$$$$$$$$$$$$$$$$$$$$$$$$",
"++@%#$$$$$$$$$$$$$$$$$$$$$$$$$$$",
"@@%%#$$$$$$$$$$$$$$$$$$$$$$$$$$$",
"%%%#$$$$$$$$$$$$$$$$$$$$$$$$$$$$",
"%%%#$$$$$$$$$$$$$$$$$$$$$$$$$$$$",
"%%#&$$$$$$$$$$$$$$$$$$$$$$$$$$$$",
"##&*$$$$$$$$$$$$$$$$$$$$$$$$$$$$",
"&&*$$$$$$$$$$$$$$$$$$$$$$$$$$$$$",
"**$$$$$$$$$$$$$$$$$$$$$$$$$$$$$$",
"$$$$$$$$$$$$$$$$$$$$$$$$$$$$$$$$",
"$$$$$$$$$$$$$$$$$$$$$$$$$$$$$$$$",
"$$$$$$$$$$$$$$$$$$$$$$$$$$$$$$$$",
"$$$$$$$$$$$$$$$$$$$$$$$$$$$$$$$$",
"$$$$$$$$$$$$$$$$$$$$$$$$$$$$$$$$",
"$$$$$$$$$$$$$$$$$$$$$$$$$$$$$$$$",
"$$$$$$$$$$$$$$$$$$$$$$$$$$$$$$$$",
"$$$$$$$$$$$$$$$$$$$$$$$$$$$$$$$$",
"$$$$$$$$$$$$$$$$$$$$$$$$$$$$$$$$",
"$$$$$$$$$$$$$$$$$$$$$$$$$$$$$$$$",
"$$$$$$$$$$$$$$$$$$$$$$$$$$$$$$$$",
"$$$$$$$$$$$$$$$$$$$$$$$$$$$$$$$$",
"$$$$$$$$$$$$$$$$$$$$$$$$$$$$$$$$",
"$$$$$$$$$$$$$$$$$$$$$$$$$$$$$$$$",
"$$$$$$$$$$$$$$$$$$$$$$$$$$$$$$$$",
"$$$$$$$$$$$$$$$$$$$$$$$$$$$$$$$$",
"$$$$$$$$$$$$$$$$$$$$$$$$$$$$$$$$",
"$$$$$$$$$$$$$$$$$$$$$$$$$$$$$$$$",
"$$$$$$$$$$$$$$$$$$$$$$$$$$$$$$$$",
"$$$$$$$$$$$$$$$$$$$$$$$$$$$$$$$$",
"$$$$$$$$$$$$$$$$$$$$$$$$$$$$$$$$",
"$$$$$$$$$$$$$$$$$$$$$$$$$$$$$$$$"};
