/* XPM */
static char * wall6_xpm[] = {
"32 32 6 1",
" 	c #8FDE5D",
".	c #CFFF70",
"+	c #814636",
"@	c #EB9C6E",
"#	c #CBDBFC",
"$	c #4DA6FF",
" .+@#$$$$$$$$$$$$$$$$$$$$$$$$$$$",
" .+@#$$$$$$$$$$$$$$$$$$$$$$$$$$$",
" .+@#$$$$$$$$$$$$$$$$$$$$$$$$$$$",
" .+@#$$$$$$$$$$$$$$$$$$$$$$$$$$$",
" .+@#$$$$$$$$$$$$$$$$$$$$$$$$$$$",
" .+@#$$$$$$$$$$$$$$$$$$$$$$$$$$$",
" .+@#$$$$$$$$$$$$$$$$$$$$$$$$$$$",
" .+@#$$$$$$$$$$$$$$$$$$$$$$$$$$$",
" .+@#$$$$$$$$$$$$$$$$$$$$$$$$$$$",
" .+@#$$$$$$$$$$$$$$$$$$$$$$$$$$$",
" .+@#$$$$$$$$$$$$$$$$$$$$$$$$$$$",
" .+@#$$$$$$$$$$$$$$$$$$$$$$$$$$$",
" .+@#$$$$$$$$$$$$$$$$$$$$$$$$$$$",
" .+@#$$$$$$$$$$$$$$$$$$$$$$$$$$$",
" .+@#$$$$$$$$$$$$$$$$$$$$$$$$$$$",
" .+@#$$$$$$$$$$$$$$$$$$$$$$$$$$$",
" .+@#$$$$$$$$$$$$$$$$$$$$$$$$$$$",
" .+@#$$$$$$$$$$$$$$$$$$$$$$$$$$$",
" .+@#$$$$$$$$$$$$$$$$$$$$$$$$$$$",
" .+@#$$$$$$$$$$$$$$$$$$$$$$$$$$$",
" .+@#$$$$$$$$$$$$$$$$$$$$$$$$$$$",
" .+@#$$$$$$$$$$$$$$$$$$$$$$$$$$$",
" .+@#$$$$$$$$$$$$$$$$$$$$$$$$$$$",
" .+@#$$$$$$$$$$$$$$$$$$$$$$$$$$$",
" .+@#$$$$$$$$$$$$$$$$$$$$$$$$$$$",
" .+@#$$$$$$$$$$$$$$$$$$$$$$$$$$$",
" .+@#$$$$$$$$$$$$$$$$$$$$$$$$$$$",
" .+@#$$$$$$$$$$$$$$$$$$$$$$$$$$$",
" .+@#$$$$$$$$$$$$$$$$$$$$$$$$$$$",
" .+@#$$$$$$$$$$$$$$$$$$$$$$$$$$$",
" .+@#$$$$$$$$$$$$$$$$$$$$$$$$$$$",
" .+@#$$$$$$$$$$$$$$$$$$$$$$$$$$$"};
