/* XPM */
static char * wall0_xpm[] = {
"32 32 5 1",
" 	c None",
".	c #322947",
"+	c #964253",
"@	c #BA6156",
"#	c #537A3A",
"                                ",
"                                ",
"                                ",
"                                ",
"                                ",
"                                ",
"                                ",
"                                ",
"                                ",
"                                ",
"                                ",
"                                ",
"                                ",
"                                ",
"                                ",
"                                ",
"                                ",
"                                ",
"                                ",
"                                ",
"                                ",
"                                ",
"             .+@@.              ",
"             .+@@.              ",
"          ###.+@@.###           ",
"        ####.++@@@.####         ",
"       ####.+++@+++.####        ",
"      #####...+++...#####       ",
"       #######.+.#######        ",
"        #######.#######         ",
"           #########            ",
"                                "};
