/* XPM */
static char * wall8_xpm[] = {
"32 32 6 1",
" 	c #4DA6FF",
".	c #3B7FC3",
"+	c #EB9C6E",
"@	c #814636",
"#	c #CFFF70",
"$	c #8FDE5D",
"                           .+@#$",
"                           .+@#$",
"                           .+@#$",
"                           .+@#$",
"                           .+@#$",
"                           .+@#$",
"                           .+@#$",
"                           .+@#$",
"                           .+@#$",
"                           .+@#$",
"                           .+@#$",
"                           .+@#$",
"                           .+@#$",
"                           .+@#$",
"                           .+@#$",
"                           .+@#$",
"                           .+@#$",
"                           .+@#$",
"                           .+@#$",
"                           .+@#$",
"                           .+@#$",
"                           .+@#$",
"                           .+@#$",
"                           .+@#$",
"                           .+@#$",
"                           .+@#$",
"                           .+@#$",
"                           .+@#$",
"                           .+@#$",
"                           .+@#$",
"                           .+@#$",
"                           .+@#$"};
