/* XPM */
static char * slime28_xpm[] = {
"32 32 5 1",
" 	c None",
".	c #1D235D",
"+	c #65B1B8",
"@	c #4D8AB3",
"#	c #FFFFFF",
"                                ",
"                                ",
"                                ",
"                                ",
"                                ",
"                                ",
"                                ",
"                                ",
"                                ",
"                                ",
"                                ",
"                                ",
"                                ",
"                                ",
"                                ",
"            ........            ",
"           .++++++@@.           ",
"          .++++++++@@.          ",
"         .++.++.#++@@.          ",
"         .++.++.#+++@@.         ",
"         .++.++..+++@@.         ",
"         .++++++++++@@.         ",
"         .+++++++++@@@.         ",
"         .++++++++@@..          ",
"          ..........            ",
"                                ",
"                                ",
"                                ",
"                                ",
"                                ",
"                                ",
"                                "};
