/* XPM */
static char * slime48_xpm[] = {
"32 32 4 1",
" 	c None",
".	c #1D235D",
"+	c #4D8AB3",
"@	c #65B1B8",
"                                ",
"                                ",
"                                ",
"                                ",
"                                ",
"                                ",
"                                ",
"                                ",
"                    ...         ",
"                   .+@+.        ",
"                  .+@@@.        ",
"       ...        .@@@@.        ",
"       .+@.        .@@.         ",
"       ..+.         ..          ",
"        ...                     ",
"                                ",
"                                ",
"                                ",
"                                ",
"                     ..         ",
"                    .@+.        ",
"                    .+@.        ",
"                     ...        ",
"                                ",
"                                ",
"                                ",
"                                ",
"                                ",
"                                ",
"                                ",
"                                ",
"                                "};
