/* XPM */
static char * slime46_xpm[] = {
"32 32 5 1",
" 	c None",
".	c #1D235D",
"+	c #4D8AB3",
"@	c #65B1B8",
"#	c #FFFFFF",
"                                ",
"                                ",
"                                ",
"                                ",
"                                ",
"                                ",
"                                ",
"               .....            ",
"             ..+++++.           ",
"            .@@@@@+++.          ",
"           .@@@@@@@++.          ",
"           ..@@@.#@++.          ",
"          .@...@..@@++.         ",
"          .@.@.@@@@+++.         ",
"          .@@@@.@@+++.          ",
"          .@@@@@.....           ",
"          .@@@@@@++++.          ",
"          .@@@@@@@+++.          ",
"          .@@@@@@@+++.          ",
"          .@@@@@++++.           ",
"           .@@+++++.            ",
"            .......             ",
"                                ",
"                                ",
"                                ",
"                                ",
"                                ",
"                                ",
"                                ",
"                                ",
"                                ",
"                                "};
